<svg id="图层_1" data-name="图层 1" xmlns="http://www.w3.org/2000/svg" viewBox="0 0 1042.7578 154.5117">
    <defs>
        <style>.cls-1{isolation:isolate;}</style>
    </defs>
    <g class="cls-1">
        <g class="cls-1">
            <path d="M49.5361,116.7842,3.6,81.792V75.4561l45.792-35.712V57.3115l-26.9282,20.88L49.5361,99.2158Z"/>
        </g>
        <g class="cls-1">
            <path d="M103.4619,19.7275,75.3818,118.8H57.0942l28.08-99.0723Z"/>
        </g>
        <g class="cls-1">
            <path d="M152.3345,81.792l-45.9361,34.9922V99.2158l27.0723-21.0244-26.9282-20.88V39.7441l45.792,35.712Z"/>
        </g>
        <g class="cls-1">
            <path d="M273.293,56.88l-16.416,1.4394-2.88-16.7031H239.165v60.7676h15.2637V118.8h-48.96v-16.416h14.4V41.6162H205.0366l-2.88,16.7031L185.7407,56.88l2.88-31.68h81.792Z"/>
        </g>
        <g class="cls-1">
            <path d="M319.5,52.9922a27.1516,27.1516,0,0,1,6.12.792,23,23,0,0,1,6.6963,2.8076l2.88,22.752L321.084,80.9277,318.6362,69.84a10.176,10.176,0,0,0-5.04-1.7285,7.4954,7.4954,0,0,0-5.544,2.4483q-2.3759,2.4507-2.3759,7.2V104.832h11.52V118.8H278.46V104.832h8.64V67.9678h-9.36V53.8555h26.4961V66.24a22.7014,22.7014,0,0,1,5.1118-9.4326Q312.8748,52.9946,319.5,52.9922Z"/>
        </g>
        <g class="cls-1">
            <path d="M343.3887,58.4639a88.977,88.977,0,0,1,14.1841-4.68A65.648,65.648,0,0,1,371.1807,52.56a30.3239,30.3239,0,0,1,18.144,5.4726q7.6311,5.4741,7.6318,16.56v28.2236q0,5.0435,4.4644,5.04a9.5267,9.5267,0,0,0,2.7358-.4317l.1441,9.792a24.2962,24.2962,0,0,1-11.6641,3.0244q-12.8181,0-14.2558-12.8164V107.28a30.2588,30.2588,0,0,1-7.8482,8.9277q-5.113,4.03-13.0322,4.0322a24.6282,24.6282,0,0,1-13.5357-4.1767q-6.48-4.1748-6.48-14.3994,0-11.9517,9.5756-15.84a54.3821,54.3821,0,0,1,20.6641-3.8887,84.9925,84.9925,0,0,1,10.6563.5762v-2.16a35.255,35.255,0,0,0-1.3682-9.792q-1.37-4.752-9.2881-4.752a35.4432,35.4432,0,0,0-5.2558.36,15.6867,15.6867,0,0,0-4.68,1.5117l-2.4478,9.2158-14.832-1.584Zm34.9922,33.84V91.44q-2.3057-.2857-4.68-.5752a39.0141,39.0141,0,0,0-4.68-.2881,19.72,19.72,0,0,0-8.64,1.8q-3.7464,1.8016-3.7442,7.1279a8.26,8.26,0,0,0,1.728,5.3281q1.7278,2.1593,5.9039,2.16a14.0485,14.0485,0,0,0,9.144-3.5283Q377.6585,99.9365,378.3809,92.3037Z"/>
        </g>
        <g class="cls-1">
            <path d="M487.9067,118.8H452.0508V104.832h8.64V82.2236q0-8.35-2.8081-11.9521-2.8081-3.5977-8.28-3.6-6.6248,0-10.2236,4.1035a16.2279,16.2279,0,0,0-3.7441,10.7285V104.832h8.64V118.8H408.4185V104.832h8.64V67.9678h-9.36V53.8555h27.9361V63.792q6.48-11.2324,20.88-11.2324a24.6545,24.6545,0,0,1,15.9839,5.4726q6.767,5.4741,6.7681,16.9912V104.832h8.64Z"/>
        </g>
        <g class="cls-1">
            <path d="M552.2305,94.6074q-1.0109,8.9311-7.7051,17.28-6.6943,8.3539-22.3916,8.3525-14.1138,0-23.2559-8.208-9.1464-8.2089-9.144-24.624,0-17.2807,9.936-26.0644,9.936-8.7818,24.0479-8.7842a52.7173,52.7173,0,0,1,11.4482,1.3681A47.2465,47.2465,0,0,1,547.19,58.4639L550.07,78.1914l-14.832,1.584-2.16-10.6553a31.6686,31.6686,0,0,0-9.792-1.8721,13.2067,13.2067,0,0,0-10.08,4.5362q-4.1786,4.5351-4.1763,14.76,0,19.0079,14.8315,19.0079,10.9424,0,12.8164-13.8243Z"/>
        </g>
        <g class="cls-1">
            <path d="M619.3906,98.3516q-.7221,8.64-8.4961,15.2646t-21.7431,6.624q-14.5475,0-23.9766-8.208-9.4321-8.2089-9.4316-24.48,0-14.9751,8.5673-24.9844Q572.877,52.5611,588.2871,52.56q13.5338,0,21.96,7.7763,8.4243,7.7754,8.5683,20.4483a43.7336,43.7336,0,0,1-1.0088,9.3594h-42.624q1.5835,15.41,15.2647,15.4082,7.4853,0,10.1513-3.6a16.9755,16.9755,0,0,0,3.24-6.48ZM599.6631,79.3438a14.004,14.004,0,0,0-2.0879-9.2159q-2.6659-4.32-9.2881-4.32-5.7612,0-8.9277,3.7442a18.949,18.949,0,0,0-4.0323,9.792Z"/>
        </g>
        <g class="cls-1">
            <path d="M715.8975,71.5674q0,21.3135-12.5284,34.2724T668.666,118.8H624.6016v-16.416h10.08V41.6162h-10.08V25.2h42.9121q24.0468,0,36.2158,12.8154Q715.8965,50.8345,715.8975,71.5674Zm-20.7364.2881q0-30.2388-28.0791-30.2393H653.9775v60.7676H667.082q13.5338,0,20.8076-7.2Q695.16,87.9854,695.1611,71.8555Z"/>
        </g>
        <g class="cls-1">
            <path d="M762.3076,52.9922a27.1481,27.1481,0,0,1,6.12.792,23.0043,23.0043,0,0,1,6.6963,2.8076l2.88,22.752-14.1123,1.5839L761.4434,69.84a10.1729,10.1729,0,0,0-5.0391-1.7285,7.4965,7.4965,0,0,0-5.5449,2.4483q-2.376,2.4507-2.375,7.2V104.832h11.5195V118.8H721.2676V104.832h8.6406V67.9678h-9.36V53.8555h26.496V66.24a22.7078,22.7078,0,0,1,5.1123-9.4326Q755.6821,52.9946,762.3076,52.9922Z"/>
        </g>
        <g class="cls-1">
            <path d="M845.208,98.3516q-.7221,8.64-8.4961,15.2646t-21.7441,6.624q-14.546,0-23.9756-8.208-9.4337-8.2089-9.4326-24.48,0-14.9751,8.5683-24.9844,8.5665-10.0063,23.9756-10.0078,13.5337,0,21.96,7.7763,8.4243,7.7754,8.5683,20.4483a43.7966,43.7966,0,0,1-1.0078,9.3594H801q1.582,15.41,15.2637,15.4082,7.4853,0,10.1523-3.6a16.9736,16.9736,0,0,0,3.24-6.48ZM825.48,79.3438a14.004,14.004,0,0,0-2.0879-9.2159q-2.666-4.32-9.2881-4.32-5.7612,0-8.9277,3.7442a18.9564,18.9564,0,0,0-4.0322,9.792Z"/>
        </g>
        <g class="cls-1">
            <path d="M855.7617,58.4639a88.99,88.99,0,0,1,14.1836-4.68A65.6565,65.6565,0,0,1,883.5537,52.56a30.3207,30.3207,0,0,1,18.1436,5.4726q7.6318,5.4741,7.6328,16.56v28.2236q0,5.0435,4.4638,5.04a9.5215,9.5215,0,0,0,2.7354-.4317l.1445,9.792A24.2972,24.2972,0,0,1,905.01,120.24q-12.8175,0-14.2559-12.8164V107.28a30.25,30.25,0,0,1-7.8477,8.9277q-5.1136,4.03-13.0332,4.0322a24.6285,24.6285,0,0,1-13.5351-4.1767q-6.48-4.1748-6.4805-14.3994,0-11.9517,9.5762-15.84a54.38,54.38,0,0,1,20.6641-3.8887,84.9807,84.9807,0,0,1,10.6562.5762v-2.16a35.2513,35.2513,0,0,0-1.3682-9.792q-1.37-4.752-9.288-4.752a35.4407,35.4407,0,0,0-5.2559.36,15.68,15.68,0,0,0-4.68,1.5117l-2.4482,9.2158-14.8321-1.584Zm34.9922,33.84V91.44q-2.3057-.2857-4.68-.5752a39.0283,39.0283,0,0,0-4.6806-.2881,19.72,19.72,0,0,0-8.64,1.8q-3.747,1.8016-3.7441,7.1279a8.2572,8.2572,0,0,0,1.7285,5.3281q1.7269,2.1593,5.9033,2.16a14.0465,14.0465,0,0,0,9.1436-3.5283Q890.0317,99.9365,890.7539,92.3037Z"/>
        </g>
        <g class="cls-1">
            <path d="M1041.0312,118.8h-27.2158V82.2236q0-8.35-2.8076-11.9521-2.8095-3.5977-8.2812-3.6-6.6241,0-9.5752,4.32-2.9532,4.32-2.9522,11.0879V104.832H998.84V118.8H971.623V82.2236q0-8.35-2.8076-11.9521-2.808-3.5977-8.28-3.6-6.7706,0-9.6485,4.32-2.8814,4.32-2.8789,11.0879V104.832h12.3828V118.8h-39.6V104.832h8.6406V67.9678h-8.4961V53.8555h27.0723v9.792q6.189-11.0861,19.7276-11.0879a25.2028,25.2028,0,0,1,12.96,3.456,18.23,18.23,0,0,1,8.208,10.5117q5.7584-13.9642,21.168-13.9677a24.0451,24.0451,0,0,1,15.5517,5.4726q6.7677,5.4741,6.7676,16.9912V104.832h8.6406Z"/>
        </g>
    </g>
</svg>